<?xml version="1.0" encoding="iso-8859-1"?>
<!-- Uploaded to: SVG Repo, www.svgrepo.com, Generator: SVG Repo Mixer Tools -->
<svg fill="orange" height="800px" width="800px" version="1.1" id="Layer_1" xmlns="http://www.w3.org/2000/svg"
	xmlns:xlink="http://www.w3.org/1999/xlink" viewBox="0 0 512 512" xml:space="preserve">
	<g>
		<g>
			<path d="M463.238,170.667v-36.571H48.762v36.571H0v170.667h48.762v36.571h414.476v-36.571H512V170.667H463.238z M438.857,274.286
			H384v18.286h-36.571v-18.286h-39.717c-7.548,21.283-27.874,36.571-51.712,36.571c-23.838,0-44.164-15.288-51.712-36.571h-51.907
			v18.286H115.81v-18.286H73.143v-36.571h42.667v-18.286h36.571v18.286h51.907c7.548-21.283,27.874-36.571,51.712-36.571
			c23.839,0,44.164,15.288,51.712,36.571h39.717v-18.286H384v18.286h54.857V274.286z" />
		</g>
	</g>
</svg>